<?xml version="1.0" encoding="UTF-8" standalone="no"?>
<!-- Created with Inkscape (http://www.inkscape.org/) -->

<svg
   xmlns:dc="http://purl.org/dc/elements/1.1/"
   xmlns:cc="http://creativecommons.org/ns#"
   xmlns:rdf="http://www.w3.org/1999/02/22-rdf-syntax-ns#"
   xmlns:svg="http://www.w3.org/2000/svg"
   xmlns="http://www.w3.org/2000/svg"
   xmlns:xlink="http://www.w3.org/1999/xlink"
   xmlns:sodipodi="http://sodipodi.sourceforge.net/DTD/sodipodi-0.dtd"
   xmlns:inkscape="http://www.inkscape.org/namespaces/inkscape"
   width="640"
   height="640"
   viewBox="0 0 640 640"
   id="svg2"
   version="1.1"
   inkscape:version="0.91 r13725"
   sodipodi:docname="kudu.svg">
  <defs
     id="defs4" />
  <sodipodi:namedview
     id="base"
     pagecolor="#ffffff"
     bordercolor="#666666"
     borderopacity="1.0"
     inkscape:pageopacity="0.0"
     inkscape:pageshadow="2"
     inkscape:zoom="0.98994949"
     inkscape:cx="343.92355"
     inkscape:cy="258.83076"
     inkscape:document-units="px"
     inkscape:current-layer="layer1"
     showgrid="false"
     inkscape:window-width="1920"
     inkscape:window-height="1171"
     inkscape:window-x="0"
     inkscape:window-y="1050"
     inkscape:window-maximized="1"
     units="px"
     width="640px" />
  <metadata
     id="metadata7">
    <rdf:RDF>
      <cc:Work
         rdf:about="">
        <dc:format>image/svg+xml</dc:format>
        <dc:type
           rdf:resource="http://purl.org/dc/dcmitype/StillImage" />
        <dc:title></dc:title>
      </cc:Work>
    </rdf:RDF>
  </metadata>
  <g
     inkscape:label="Layer 1"
     inkscape:groupmode="layer"
     id="layer1"
     transform="translate(0,-412.3622)">
    <g
       id="g3439"
       style="fill:#000000;fill-opacity:1"
       inkscape:tile-cx="217.82044"
       inkscape:tile-cy="423.07123"
       inkscape:tile-w="281.13039"
       inkscape:tile-h="629.03098"
       inkscape:tile-x0="77.256493"
       inkscape:tile-y0="108.68879"
       transform="matrix(1.1368971,0,0,1.0172752,-87.507087,302.01438)">
      <g
         inkscape:transform-center-y="65.600758"
         inkscape:transform-center-x="186.64807"
         transform="translate(2.0203046,-44.446712)"
         id="g3415"
         style="fill:#000000;fill-opacity:1" />
      <path
         id="path3413"
         style="fill:#000000;fill-opacity:1;fill-rule:evenodd;stroke:#000000;stroke-width:1px;stroke-linecap:butt;stroke-linejoin:miter;stroke-opacity:1"
         d="m 357.73459,678.62978 0.15032,58.32393 C 246.79846,688.2449 199.0636,639.36772 179.17953,587.51872 159.34304,535.7938 170.90396,509.97157 184.63819,462.50055 203.75596,396.42182 197.43405,372.57595 159.32925,342.94977 117.3385,310.30229 91.214834,287.12843 82.659194,246.17382 64.754369,160.46602 101.6466,109.76361 101.6466,109.76361 c 0.61324,-0.8704 1.02668,-0.57803 1.64149,-0.25254 0,0 -4.671947,11.23795 -6.944791,34.09265 -2.272843,22.8547 -7.702413,46.84583 13.510781,97.60599 21.21321,50.76017 66.37487,55.18817 97.9848,97.9848 20.22536,27.38308 25.51379,51.57597 22.48333,86.17369 -3.03045,34.59773 -18.69526,59.54081 -19.70541,108.53321 -1.01015,48.9924 50.29729,83.86888 103.03556,116.92516 40.48705,25.37723 42.92234,27.00535 42.92234,27.00535 z"
         inkscape:connector-curvature="0"
         sodipodi:nodetypes="ccssssccsssssscc" />
    </g>
    <use
       x="0"
       y="0"
       inkscape:tiled-clone-of="#g3439"
       xlink:href="#g3439"
       id="use4290"
       width="100%"
       height="100%"
       transform="translate(5.1209423e-7,-4.5284511e-6)" />
    <use
       x="0"
       y="0"
       inkscape:tiled-clone-of="#g3439"
       xlink:href="#g3439"
       transform="matrix(-1,0,0,1,639.88097,-4.5284511e-6)"
       id="use4292"
       width="100%"
       height="100%" />
  </g>
</svg>
